<svg width="70" height="51" viewBox="0 0 70 51" fill="none" xmlns="http://www.w3.org/2000/svg">
<path d="M5.32528 36.1723H4.2793V42.5675H5.32528V36.1723Z" fill="#01498E"/>
<path d="M11.4082 42.5675H10.3587L7.66524 38.0296V42.5675H6.61572V36.1723H7.66524L10.3663 40.7272V36.1723H11.4082V42.5675Z" fill="#01498E"/>
<path d="M15.8067 40.9204C15.8067 40.6393 15.7132 40.4225 15.5268 40.2704C15.3399 40.1184 15.0036 39.9645 14.5161 39.8094C14.0293 39.6543 13.6418 39.4817 13.3549 39.2909C12.804 38.925 12.5288 38.4476 12.5288 37.8588C12.5288 37.3433 12.7276 36.9186 13.1244 36.5848C13.5213 36.2511 14.0364 36.0839 14.6702 36.0839C15.0906 36.0839 15.4657 36.1662 15.7944 36.3298C16.1236 36.494 16.3823 36.7278 16.5705 37.0307C16.758 37.3336 16.8521 37.6698 16.8521 38.0387H15.8061C15.8061 37.7049 15.7074 37.4432 15.5092 37.2548C15.3117 37.0658 15.0288 36.9713 14.6608 36.9713C14.318 36.9713 14.0511 37.0495 13.8617 37.204C13.6724 37.359 13.5778 37.5759 13.5778 37.854C13.5778 38.0878 13.6801 38.2841 13.8847 38.4397C14.0899 38.5966 14.4268 38.7493 14.8971 38.8971C15.3675 39.0455 15.745 39.2139 16.0301 39.4023C16.3147 39.5913 16.524 39.8082 16.6563 40.0523C16.7892 40.2971 16.8556 40.583 16.8556 40.9113C16.8556 41.4444 16.6628 41.8679 16.2765 42.1829C15.8908 42.4979 15.3669 42.6554 14.7055 42.6554C14.2686 42.6554 13.8664 42.5693 13.5001 42.3985C13.1333 42.2277 12.8487 41.9908 12.6452 41.6891C12.4418 41.3881 12.3401 41.0361 12.3401 40.6351H13.3896C13.3896 40.9979 13.5037 41.2796 13.73 41.4783C13.957 41.6776 14.2821 41.777 14.7049 41.777C15.0706 41.777 15.3446 41.6982 15.5286 41.5413C15.7126 41.3844 15.8044 41.1779 15.8044 40.9198L15.8067 40.9204Z" fill="#01498E"/>
<path d="M22.1432 37.0682H20.2588V42.5675H19.2175V37.0682H17.3501V36.1723H22.1432V37.0682Z" fill="#01498E"/>
<path d="M24.043 36.1723H22.9976V42.5675H24.043V36.1723Z" fill="#01498E"/>
<path d="M29.5792 37.0682H27.6954V42.5675H26.6535V37.0682H24.7861V36.1723H29.5792V37.0682Z" fill="#01498E"/>
<path d="M34.7905 36.1723V40.4461C34.7905 41.1258 34.5853 41.6637 34.1743 42.0605C33.7639 42.4573 33.2165 42.656 32.5333 42.656C31.8501 42.656 31.2927 42.4603 30.8864 42.0696C30.4796 41.6788 30.2761 41.1361 30.2761 40.4418V36.1723H31.3215V40.4509C31.3215 40.8786 31.4238 41.2045 31.6284 41.4305C31.8331 41.6558 32.1347 41.7685 32.5327 41.7685C33.3406 41.7685 33.7445 41.3172 33.7445 40.4158V36.1723H34.7905Z" fill="#01498E"/>
<path d="M40.2761 37.0682H38.3923V42.5675H37.351V37.0682H35.4836V36.1723H40.2761V37.0682Z" fill="#01498E"/>
<path d="M44.7247 39.203C44.7247 38.4943 44.5983 37.9515 44.3455 37.5735C44.0921 37.1955 43.7334 37.0071 43.2684 37.0071C42.8033 37.0071 42.4605 37.1949 42.2041 37.5717C41.9484 37.9479 41.8173 38.4803 41.812 39.1685V39.5368C41.812 40.2401 41.9413 40.7835 42.2 41.167C42.4587 41.551 42.8174 41.7425 43.2766 41.7425C43.7358 41.7425 44.0986 41.5553 44.349 41.1803C44.5995 40.8053 44.7247 40.2583 44.7247 39.5374V39.2036V39.203ZM45.7748 39.5362C45.7748 40.1632 45.6725 40.7132 45.4679 41.1857C45.2627 41.6589 44.9705 42.0217 44.5901 42.2755C44.2097 42.5294 43.7716 42.6554 43.2766 42.6554C42.7815 42.6554 42.3505 42.5288 41.9678 42.2755C41.5844 42.0223 41.2887 41.6613 41.0799 41.193C40.8706 40.7241 40.7654 40.1844 40.7625 39.5719V39.2121C40.7625 38.5888 40.8671 38.0381 41.0758 37.5602C41.2846 37.0828 41.5791 36.7175 41.9595 36.4643C42.34 36.2111 42.7762 36.0845 43.2684 36.0845C43.7605 36.0845 44.1973 36.2099 44.5777 36.4601C44.9582 36.7102 45.2521 37.0701 45.4591 37.5408C45.6667 38.0109 45.7713 38.5579 45.7748 39.1812V39.5368V39.5362Z" fill="#01498E"/>
<path d="M49.9864 37.0682V41.6807H50.6708C51.2217 41.6807 51.6439 41.4983 51.939 41.133C52.2336 40.769 52.3835 40.2456 52.3888 39.5629V39.2073C52.3888 38.513 52.2465 37.983 51.9614 37.6171C51.6762 37.2506 51.2629 37.0682 50.7208 37.0682H49.9864ZM48.9363 42.5675V36.1723H50.7208C51.2546 36.1723 51.7285 36.2983 52.1419 36.5503C52.5558 36.8023 52.8756 37.1591 53.1026 37.6213C53.3295 38.0841 53.4424 38.6142 53.4424 39.2121V39.5332C53.4424 40.1389 53.3284 40.672 53.0996 41.1318C52.8715 41.5916 52.5464 41.9466 52.1248 42.1956C51.7032 42.4439 51.2193 42.5681 50.6749 42.5681H48.9363V42.5675Z" fill="#01498E"/>
<path d="M54.2691 38.069L53.7546 37.731C54.0033 37.3475 54.1327 36.9417 54.1403 36.514V35.8198H55.0246V36.4261C55.0246 36.7272 54.9517 37.0313 54.8065 37.3372C54.6613 37.6432 54.4819 37.8873 54.2691 38.0684V38.069Z" fill="#01498E"/>
<path d="M59.2614 39.203C59.2614 38.4943 59.1349 37.9515 58.8821 37.5735C58.6287 37.1955 58.2701 37.0071 57.805 37.0071C57.3399 37.0071 56.9965 37.1949 56.7408 37.5717C56.4844 37.9479 56.3539 38.4803 56.3486 39.1685V39.5368C56.3486 40.2401 56.4779 40.7835 56.7366 41.167C56.9953 41.551 57.354 41.7425 57.8138 41.7425C58.2736 41.7425 58.6358 41.5553 58.8862 41.1803C59.1367 40.8053 59.2619 40.2583 59.2619 39.5374V39.2036L59.2614 39.203ZM60.3109 39.5362C60.3109 40.1632 60.2086 40.7132 60.004 41.1857C59.7993 41.6589 59.5065 42.0217 59.1267 42.2755C58.7457 42.5294 58.3083 42.6554 57.8132 42.6554C57.3181 42.6554 56.8872 42.5288 56.5044 42.2755C56.121 42.0223 55.8247 41.6613 55.6166 41.193C55.4073 40.7241 55.302 40.1844 55.2991 39.5719V39.2121C55.2991 38.5888 55.4037 38.0381 55.6125 37.5602C55.8218 37.0828 56.1163 36.7175 56.4968 36.4643C56.8772 36.2111 57.3134 36.0845 57.8056 36.0845C58.2977 36.0845 58.7345 36.2099 59.1144 36.4601C59.4954 36.7102 59.7888 37.0701 59.9963 37.5408C60.2039 38.0109 60.3085 38.5579 60.3115 39.1812V39.5368L60.3109 39.5362Z" fill="#01498E"/>
<path d="M5.06882 47.392H6.04778C6.33765 47.392 6.55872 47.3199 6.71159 47.1757C6.86388 47.0315 6.93972 46.8231 6.93972 46.5499C6.93972 46.2767 6.8627 46.0671 6.70748 45.9072C6.55284 45.7467 6.34059 45.6649 6.07013 45.66H5.06882V47.392ZM5.06882 48.0874V49.9284H4.25391V44.9646H6.04778C6.57166 44.9646 6.98794 45.1088 7.29544 45.3983C7.60353 45.6873 7.75758 46.0695 7.75758 46.5451C7.75758 47.0206 7.60706 47.4107 7.30544 47.6815C7.00322 47.9529 6.58107 48.0874 6.03779 48.0874H5.06824H5.06882Z" fill="#01498E"/>
<path d="M11.2102 47.7124H9.28464V49.2402H11.5354V49.9284H8.46973V44.9646H11.513V45.66H9.28464V47.0309H11.2102V47.7124Z" fill="#01498E"/>
<path d="M14.6496 48.6502C14.6496 48.4321 14.5773 48.2637 14.4321 48.1462C14.2869 48.0281 14.0258 47.9087 13.6483 47.7882C13.2703 47.6676 12.9698 47.5331 12.7464 47.3859C12.319 47.1018 12.1055 46.7311 12.1055 46.2737C12.1055 45.8739 12.2596 45.5444 12.5677 45.2857C12.8758 45.0264 13.2756 44.8974 13.7671 44.8974C14.0934 44.8974 14.3845 44.961 14.6397 45.0882C14.8948 45.2154 15.0959 45.3966 15.2417 45.6322C15.3875 45.8673 15.4605 46.1283 15.4605 46.4149H14.6491C14.6491 46.155 14.572 45.9527 14.4186 45.8061C14.2651 45.6595 14.0452 45.5862 13.7601 45.5862C13.4937 45.5862 13.2873 45.6461 13.1403 45.7667C12.9934 45.8872 12.9199 46.0557 12.9199 46.2713C12.9199 46.453 12.9992 46.6051 13.158 46.7262C13.3167 46.848 13.579 46.9661 13.9435 47.0806C14.3086 47.1957 14.6014 47.326 14.8225 47.4732C15.0436 47.6198 15.2059 47.7876 15.3088 47.9772C15.4116 48.1674 15.4634 48.3891 15.4634 48.6441C15.4634 49.0579 15.3135 49.3862 15.0142 49.631C14.7149 49.8751 14.308 49.9981 13.7953 49.9981C13.4561 49.9981 13.1445 49.9314 12.8599 49.7982C12.5753 49.6649 12.3542 49.4819 12.1967 49.2475C12.0385 49.0137 11.9597 48.7405 11.9597 48.4297H12.7746C12.7746 48.7114 12.8622 48.9301 13.0386 49.0846C13.2144 49.239 13.4673 49.316 13.7959 49.316C14.0793 49.316 14.2922 49.2554 14.435 49.1336C14.5779 49.0119 14.6491 48.8513 14.6491 48.6508L14.6496 48.6502Z" fill="#01498E"/>
<path d="M19.0877 47.3175C19.0877 46.7577 18.989 46.3337 18.7914 46.0453C18.5939 45.757 18.3152 45.6128 17.9542 45.6128C17.5931 45.6128 17.3297 45.7594 17.131 46.0508C16.9323 46.3434 16.8311 46.7547 16.8264 47.2866V47.5762C16.8264 48.1129 16.9258 48.5321 17.1245 48.8344C17.3233 49.1366 17.602 49.2875 17.9606 49.2875C18.3193 49.2875 18.6021 49.1427 18.7967 48.8513C18.9907 48.5605 19.0877 48.1353 19.0877 47.5762V47.3175ZM19.9056 47.5768C19.9056 48.0468 19.835 48.4545 19.6951 48.7992C19.5546 49.1433 19.3576 49.4165 19.1042 49.6195L19.9091 50.284L19.3811 50.7886L18.3828 49.9532C18.2517 49.9823 18.1111 49.9981 17.9612 49.9981C17.5831 49.9981 17.2457 49.8999 16.9487 49.703C16.6512 49.5068 16.4219 49.2263 16.2591 48.8622C16.0968 48.4988 16.015 48.0796 16.0127 47.604V47.3242C16.0127 46.8401 16.0938 46.4131 16.2561 46.0429C16.4184 45.6716 16.6471 45.3881 16.9423 45.1918C17.238 44.9955 17.5755 44.8974 17.9553 44.8974C18.3352 44.8974 18.6826 44.9943 18.9778 45.1888C19.273 45.3826 19.5011 45.6625 19.6628 46.0272C19.8233 46.3919 19.905 46.8165 19.9074 47.3011V47.5768H19.9056Z" fill="#01498E"/>
<path d="M24.1636 44.9646V48.2819C24.1636 48.8089 24.0042 49.2269 23.685 49.5352C23.3663 49.8429 22.9418 49.9968 22.4115 49.9968C21.8811 49.9968 21.4484 49.8448 21.1332 49.5413C20.8175 49.2378 20.6599 48.8168 20.6599 48.2782V44.9646H21.4719V48.2849C21.4719 48.6168 21.5513 48.8701 21.71 49.0451C21.8688 49.2202 22.1028 49.3074 22.412 49.3074C23.0388 49.3074 23.3522 48.9579 23.3522 48.2582V44.9646H24.1642H24.1636Z" fill="#01498E"/>
<path d="M25.8933 44.9646H25.0813V49.9284H25.8933V44.9646Z" fill="#01498E"/>
<path d="M29.3454 48.6502C29.3454 48.4321 29.273 48.2637 29.1278 48.1462C28.9832 48.0281 28.7215 47.9087 28.3441 47.7882C27.966 47.6676 27.6655 47.5331 27.4421 47.3859C27.0147 47.1018 26.8012 46.7311 26.8012 46.2737C26.8012 45.8739 26.9553 45.5444 27.2634 45.2857C27.5715 45.0264 27.9713 44.8974 28.4628 44.8974C28.7891 44.8974 29.0802 44.961 29.3354 45.0882C29.5905 45.2154 29.791 45.3966 29.9374 45.6322C30.0832 45.8673 30.1562 46.1283 30.1562 46.4149H29.3442C29.3442 46.155 29.2677 45.9527 29.1143 45.8061C28.9608 45.6595 28.7409 45.5862 28.4558 45.5862C28.1894 45.5862 27.9825 45.6461 27.836 45.7667C27.6885 45.8872 27.6156 46.0557 27.6156 46.2713C27.6156 46.453 27.6949 46.6051 27.8537 46.7262C28.013 46.848 28.2747 46.9661 28.6398 47.0806C29.0049 47.1957 29.2977 47.326 29.5188 47.4732C29.7399 47.6198 29.9022 47.7876 30.005 47.9772C30.1079 48.1674 30.1597 48.3891 30.1597 48.6441C30.1597 49.0579 30.0103 49.3862 29.7105 49.631C29.4112 49.8751 29.0043 49.9981 28.491 49.9981C28.1524 49.9981 27.8402 49.9314 27.5556 49.7982C27.2716 49.6649 27.0499 49.4819 26.8924 49.2475C26.7348 49.0137 26.656 48.7405 26.656 48.4297H27.4703C27.4703 48.7114 27.5585 48.9301 27.7343 49.0846C27.9101 49.239 28.163 49.316 28.491 49.316C28.775 49.316 28.9873 49.2554 29.1307 49.1336C29.2736 49.0119 29.3448 48.8513 29.3448 48.6508L29.3454 48.6502Z" fill="#01498E"/>
<path d="M31.9123 48.0777H33.2711L32.5914 46.0181L31.9118 48.0777H31.9123ZM33.4998 48.7731H31.6836L31.3038 49.929H30.4565L32.2275 44.9652H32.9589L34.7334 49.929H33.8832L33.4998 48.7731Z" fill="#01498E"/>
<path d="M39.6475 47.7124H37.7219V49.2402H39.9726V49.9284H36.907V44.9646H39.9503V45.66H37.7219V47.0309H39.6475V47.7124Z" fill="#01498E"/>
<path d="M45.0198 47.7124H43.0942V49.2402H45.3449V49.9284H42.2793V44.9646H45.3226V45.66H43.0942V47.0309H45.0198V47.7124Z" fill="#01498E"/>
<path d="M49.7281 49.9284H48.9132L46.823 46.407V49.9284H46.0081V44.9646H46.823L48.9197 48.5005V44.9646H49.7281V49.9284Z" fill="#01498E"/>
<path d="M53.1418 48.6502C53.1418 48.4321 53.0695 48.2637 52.9243 48.1462C52.7797 48.0281 52.518 47.9087 52.1405 47.7882C51.7625 47.6676 51.462 47.5331 51.2386 47.3859C50.8112 47.1018 50.5971 46.7311 50.5971 46.2737C50.5971 45.8739 50.7518 45.5444 51.0593 45.2857C51.3674 45.0264 51.7672 44.8974 52.2587 44.8974C52.585 44.8974 52.8761 44.961 53.1313 45.0882C53.3864 45.2154 53.5875 45.3966 53.7333 45.6322C53.8791 45.8673 53.952 46.1283 53.952 46.4149H53.1407C53.1407 46.155 53.0636 45.9527 52.9102 45.8061C52.7567 45.6595 52.5368 45.5862 52.2517 45.5862C51.9853 45.5862 51.7789 45.6461 51.6319 45.7667C51.485 45.8872 51.4115 46.0557 51.4115 46.2713C51.4115 46.453 51.4908 46.6051 51.6496 46.7262C51.8083 46.848 52.0706 46.9661 52.4357 47.0806C52.8002 47.1957 53.0936 47.326 53.3147 47.4732C53.5352 47.6198 53.698 47.7876 53.8009 47.9772C53.9038 48.1674 53.9556 48.3891 53.9556 48.6441C53.9556 49.0579 53.8056 49.3862 53.5064 49.631C53.2071 49.8751 52.8002 49.9981 52.2875 49.9981C51.9483 49.9981 51.6367 49.9314 51.3521 49.7982C51.0675 49.6649 50.8464 49.4819 50.6889 49.2475C50.5307 49.0137 50.4519 48.7405 50.4519 48.4297H51.2668C51.2668 48.7114 51.355 48.9301 51.5308 49.0846C51.7066 49.239 51.9589 49.316 52.2875 49.316C52.5709 49.316 52.7838 49.2554 52.9266 49.1336C53.0695 49.0119 53.1407 48.8513 53.1407 48.6508L53.1418 48.6502Z" fill="#01498E"/>
<path d="M55.5314 44.9646H54.72V49.9284H55.5314V44.9646Z" fill="#01498E"/>
<path d="M60.2527 49.9284H59.4383L57.3481 46.407V49.9284H56.5332V44.9646H57.3481L59.4448 48.5005V44.9646H60.2527V49.9284Z" fill="#01498E"/>
<path d="M62.0755 39.2115H63.1544C63.5084 39.2115 63.7853 39.117 63.9846 38.9286C64.1833 38.739 64.2833 38.4809 64.2833 38.1526C64.2833 37.8243 64.191 37.545 64.007 37.3578C63.8229 37.1706 63.5483 37.0737 63.1832 37.0682H62.0755V39.2115ZM63.2455 40.1074H62.0755V42.5675H61.0254V36.1723H63.1503C63.8476 36.1723 64.3856 36.3377 64.7642 36.669C65.1429 37.0004 65.3328 37.4796 65.3328 38.1066C65.3328 38.5348 65.2352 38.8929 65.04 39.1812C64.8448 39.4702 64.5732 39.6925 64.2245 39.8476L65.5815 42.5112V42.5675H64.4567L63.245 40.1074H63.2455Z" fill="#01498E"/>
<path d="M64.1434 47.3175C64.1434 46.7674 64.0452 46.3452 63.8488 46.052C63.6525 45.7588 63.3738 45.6122 63.0128 45.6122C62.6517 45.6122 62.3854 45.7588 62.1867 46.0502C61.9885 46.3428 61.8868 46.7553 61.8827 47.2896V47.5762C61.8827 48.1214 61.9826 48.543 62.1837 48.841C62.3842 49.1391 62.6629 49.2875 63.0192 49.2875C63.3755 49.2875 63.6577 49.1427 63.8518 48.8513C64.0458 48.5605 64.1434 48.1353 64.1434 47.5762V47.3175ZM64.9583 47.5768C64.9583 48.0632 64.879 48.4903 64.7202 48.8568C64.5615 49.2239 64.3345 49.5062 64.0393 49.7024C63.7442 49.8993 63.4043 49.9975 63.0198 49.9975C62.6353 49.9975 62.3013 49.8993 62.0038 49.7024C61.7063 49.5062 61.477 49.2257 61.3147 48.8616C61.1524 48.4982 61.0701 48.079 61.0684 47.6034V47.3235C61.0684 46.8395 61.1489 46.4124 61.3118 46.0423C61.4741 45.671 61.7028 45.3875 61.9979 45.1912C62.2931 44.9949 62.6318 44.8968 63.0139 44.8968C63.3961 44.8968 63.7354 44.9937 64.0305 45.1882C64.3257 45.382 64.5538 45.6619 64.7149 46.0266C64.876 46.3912 64.9577 46.8159 64.9595 47.3005V47.5762L64.9583 47.5768Z" fill="#01498E"/>
<path d="M7.72238 0.212036H3.94824V20.8776H7.72238V0.212036Z" fill="#01498E"/>
<path d="M58.7588 0.381042C61.2836 0.381042 62.9928 0.904436 63.8865 1.94698C64.6714 2.87928 65.0618 4.40403 65.0618 6.52062C65.0618 8.81653 64.7755 10.3231 64.1987 11.0446C63.6872 11.7103 62.8234 12.1604 61.6046 12.3949V12.4773C62.7452 12.5924 63.6131 13.0055 64.1987 13.713C64.6673 14.5078 64.9013 15.6782 64.9013 17.2217V21.0472H61.136V17.9335C61.136 17.2175 61.1013 16.6202 61.036 16.1471C60.9708 15.674 60.8061 15.279 60.5368 14.9622C60.2723 14.6453 59.9554 14.4436 59.5955 14.3515C59.231 14.2595 58.7494 14.2134 58.1421 14.2134H52.9098V21.0466H49.1621V0.381042H58.7577H58.7588ZM58.195 3.77523H52.911V10.8204H58.3032C58.9535 10.8204 59.4568 10.7653 59.8084 10.6508C60.16 10.5406 60.4722 10.334 60.7497 10.0263C61.1142 9.53074 61.2959 8.57482 61.2959 7.16517C61.2959 5.86517 61.1442 4.97891 60.8491 4.51549C60.6056 4.20291 60.2764 4.00118 59.8554 3.9091C59.4344 3.82187 58.8794 3.77583 58.1938 3.77583L58.195 3.77523Z" fill="#01498E"/>
<path d="M23.5462 13.5283C23.5462 14.9385 23.3639 15.8939 22.9999 16.3894C22.7218 16.6971 22.4096 16.9037 22.0586 17.0139C21.707 17.1284 21.2037 17.1836 20.5534 17.1836H15.1612V3.60561H20.4452C21.1308 3.60561 21.6858 3.65165 22.1068 3.73889C22.5272 3.83097 22.8571 4.03269 23.1005 4.34527C23.3951 4.8093 23.5473 5.69556 23.5473 6.99556V13.5289L23.5462 13.5283ZM26.1361 1.77798C25.2424 0.73543 23.5332 0.212036 21.0085 0.212036H11.4124V20.8776H21.0085C23.5332 20.8776 25.2424 20.3542 26.1361 19.3117C26.9211 18.3794 27.3115 16.8546 27.3115 14.7374V6.35222C27.3115 4.23502 26.9211 2.71027 26.1361 1.77798Z" fill="#01498E"/>
<path d="M66.0519 27.3867H3.94824V30.0873H66.0519V27.3867Z" fill="#CDA176"/>
<path d="M29.3699 10.7744C29.3699 1.97182 30.8845 0.211426 38.2628 0.211426C45.6412 0.211426 47.1558 1.73193 47.1558 10.6545C47.1558 19.577 45.6412 21.2174 38.2628 21.2174C30.8845 21.2174 29.3699 19.6969 29.3699 10.7744ZM33.9137 10.8544C33.9137 17.1763 34.3023 17.6161 38.2628 17.6161C42.2233 17.6161 42.6126 17.2563 42.6126 10.5739C42.6126 4.29196 42.2239 3.7722 38.2628 3.7722C34.3017 3.7722 33.9137 4.13203 33.9137 10.8544Z" fill="#01498E"/>
</svg>
